<mxfile host="app.diagrams.net" modified="2023-11-06T11:59:45.554Z" agent="Mozilla/5.0 (Windows NT 10.0; Win64; x64) AppleWebKit/537.36 (KHTML, like Gecko) Chrome/118.0.0.0 Safari/537.36" etag="PIQu7hNjijKC38v5m0Ft" version="22.0.8" type="device">
  <diagram name="Pagina-1" id="RRDYi-F-hyLXYyx5dI-D">
    <mxGraphModel dx="521" dy="559" grid="1" gridSize="10" guides="1" tooltips="1" connect="1" arrows="1" fold="1" page="1" pageScale="1" pageWidth="827" pageHeight="1169" math="0" shadow="0">
      <root>
        <mxCell id="0" />
        <mxCell id="1" parent="0" />
        <mxCell id="sMdZ3lYBb7GyaaZm9x2Q-5" value="&amp;lt;&amp;lt;control&amp;gt;&amp;gt;&lt;br&gt;GameTimerControl" style="swimlane;fontStyle=1;align=center;verticalAlign=top;childLayout=stackLayout;horizontal=1;startSize=40;horizontalStack=0;resizeParent=1;resizeParentMax=0;resizeLast=0;collapsible=1;marginBottom=0;whiteSpace=wrap;html=1;" vertex="1" parent="1">
          <mxGeometry x="340" y="200" width="160" height="148" as="geometry" />
        </mxCell>
        <mxCell id="sMdZ3lYBb7GyaaZm9x2Q-6" value="- PlayerStatusControl&amp;amp;&lt;br&gt;- AnalyzePostGameData&amp;amp;&lt;br&gt;- DisplayControl&amp;amp;" style="text;strokeColor=none;fillColor=none;align=left;verticalAlign=top;spacingLeft=4;spacingRight=4;overflow=hidden;rotatable=0;points=[[0,0.5],[1,0.5]];portConstraint=eastwest;whiteSpace=wrap;html=1;" vertex="1" parent="sMdZ3lYBb7GyaaZm9x2Q-5">
          <mxGeometry y="40" width="160" height="60" as="geometry" />
        </mxCell>
        <mxCell id="sMdZ3lYBb7GyaaZm9x2Q-7" value="" style="line;strokeWidth=1;fillColor=none;align=left;verticalAlign=middle;spacingTop=-1;spacingLeft=3;spacingRight=3;rotatable=0;labelPosition=right;points=[];portConstraint=eastwest;strokeColor=inherit;" vertex="1" parent="sMdZ3lYBb7GyaaZm9x2Q-5">
          <mxGeometry y="100" width="160" height="8" as="geometry" />
        </mxCell>
        <mxCell id="sMdZ3lYBb7GyaaZm9x2Q-8" value="+ void start()&lt;br style=&quot;border-color: var(--border-color);&quot;&gt;+ gameOver()&amp;amp;" style="text;strokeColor=none;fillColor=none;align=left;verticalAlign=top;spacingLeft=4;spacingRight=4;overflow=hidden;rotatable=0;points=[[0,0.5],[1,0.5]];portConstraint=eastwest;whiteSpace=wrap;html=1;" vertex="1" parent="sMdZ3lYBb7GyaaZm9x2Q-5">
          <mxGeometry y="108" width="160" height="40" as="geometry" />
        </mxCell>
      </root>
    </mxGraphModel>
  </diagram>
</mxfile>
